<svg height="486pt" viewBox="0 0 486.226 486" width="486pt" xmlns="http://www.w3.org/2000/svg"><path d="m105.242188 123.855469c3.601562-14.125 14.710937-25.246094 28.839843-28.839844 1.328125-.335937 1.328125-2.132813 0-2.46875-14.128906-3.601563-25.246093-14.714844-28.839843-28.84375-.335938-1.324219-2.136719-1.324219-2.472657 0-3.597656 14.128906-14.710937 25.25-28.839843 28.84375-1.328126.335937-1.328126 2.132813 0 2.46875 14.128906 3.601563 25.25 14.714844 28.839843 28.839844.335938 1.328125 2.128907 1.328125 2.472657 0zm0 0" fill="#7cd5ed"/><path d="m430.761719 320.671875c-4.121094 17.769531-18.085938 31.746094-35.863281 35.863281-1.335938.3125-1.335938 2.167969 0 2.480469 17.765624 4.121094 31.742187 18.089844 35.863281 35.867187.3125 1.335938 2.167969 1.335938 2.480469 0 4.121093-17.769531 18.085937-31.746093 35.863281-35.867187 1.335937-.3125 1.335937-2.167969 0-2.480469-17.765625-4.117187-31.742188-18.085937-35.863281-35.863281-.3125-1.328125-2.167969-1.328125-2.480469 0zm0 0" fill="#7cd5ed"/><path d="m336.003906 101.777344-46.058594 46.054687c-21.734374 21.738281-51.207031 33.945313-81.941406 33.945313-13.800781 0-27.296875 2.582031-40 7.261718v128.738282h128.734375c4.679688-12.703125 7.265625-26.199219 7.265625-40 0-30.738282 12.207032-60.207032 33.941406-81.945313l46.058594-46.054687zm-96 168c-13.257812 0-24-10.746094-24-24 0-13.257813 10.742188-24 24-24 13.253906 0 24 10.742187 24 24 0 13.253906-10.746094 24-24 24zm0 0" fill="#fcb138"/><path d="m168.003906 189.039062c-15.59375 5.746094-29.96875 14.707032-41.945312 26.683594l-86.054688 86.054688 144 144 86.054688-86.054688c11.976562-11.976562 20.933594-26.355468 26.679687-41.945312h-128.734375zm0 0" fill="#7ac174"/><path d="m8.03125 333.773438 32-32 144 144-32.003906 32zm0 0" fill="#fcb138"/><path d="m472.003906 61.777344-48-48-24 48 24 24zm0 0" fill="#fcb138"/><path d="m264.003906 245.777344c0 13.253906-10.746094 24-24 24-13.257812 0-24-10.746094-24-24s10.742188-24 24-24c13.253906 0 24 10.746094 24 24zm0 0" fill="#d85b55"/><path d="m232.003906 5.777344h16v32h-16zm0 0" fill="#fcb138"/><path d="m232.003906 69.777344h16v32h-16zm0 0" fill="#fcb138"/><path d="m256.003906 45.777344h32v16h-32zm0 0" fill="#fcb138"/><path d="m192.003906 45.777344h32v16h-32zm0 0" fill="#fcb138"/><g fill="#131239"><path d="m146.347656 483.433594c1.558594 1.558594 3.605469 2.34375 5.65625 2.34375 2.046875 0 4.09375-.785156 5.652344-2.34375l118.058594-118.054688c23.398437-23.402344 36.289062-54.507812 36.289062-87.601562 0-28.816406 11.222656-55.90625 31.597656-76.289063l46.054688-46.054687c3.128906-3.128906 3.128906-8.183594 0-11.3125l-48-48c-3.125-3.128906-8.183594-3.128906-11.308594 0l-46.058594 46.054687c-20.375 20.378907-47.472656 31.601563-76.285156 31.601563-33.089844 0-64.203125 12.886718-87.601562 36.289062l-118.054688 118.054688c-3.128906 3.128906-3.128906 8.183594 0 11.3125zm149.253906-329.945313 40.402344-40.398437 36.6875 36.6875-40.402344 40.398437c-23.398437 23.402344-36.285156 54.503907-36.285156 87.601563 0 11.015625-1.664062 21.769531-4.832031 32h-115.167969v-115.167969c10.230469-3.167969 20.980469-4.832031 32-4.832031 33.085938 0 64.199219-12.886719 87.597656-36.289063zm-163.886718 67.890625c8.390625-8.394531 17.96875-15.128906 28.289062-20.273437v116.671875c0 4.414062 3.582032 8 8 8h116.671875c-5.144531 10.320312-11.882812 19.894531-20.273437 28.289062l-80.398438 80.398438-132.691406-132.6875zm-91.710938 91.710938 132.6875 132.6875-20.6875 20.6875-132.691406-132.6875zm0 0"/><path d="m418.347656 91.433594c1.535156 1.535156 3.582032 2.34375 5.664063 2.34375 1.207031 0 2.4375-.28125 3.574219-.839844l48-24c2.304687-1.152344 3.902343-3.335938 4.320312-5.871094.40625-2.539062-.425781-5.121094-2.242188-6.9375l-48-48c-1.8125-1.824218-4.421874-2.640625-6.933593-2.238281-2.535157.414063-4.71875 2.015625-5.871094 4.320313l-24 48c-1.539063 3.078124-.9375 6.796874 1.503906 9.230468zm7.847656-64.152344 32.300782 32.304688-32.917969 16.453124-15.839844-15.839843zm0 0"/><path d="m357.242188 90.625c12.097656-12.097656 18.761718-28.167969 18.761718-45.257812 0-17.085938-6.664062-33.15625-18.761718-45.253907l-11.3125 11.3125c18.710937 18.710938 18.710937 49.167969 0 67.878907zm0 0"/><path d="m386.347656 184.121094 11.308594 11.3125c21.296875-21.296875 55.953125-21.296875 77.257812 0l11.3125-11.3125c-27.535156-27.535156-72.351562-27.535156-99.878906 0zm0 0"/><path d="m431.632812 133.792969 11.3125-11.3125c-15.605468-15.617188-41-15.609375-56.597656 0l11.308594 11.3125c9.371094-9.367188 24.609375-9.359375 33.976562 0zm0 0"/><path d="m96.003906 133.777344h16c0-17.648438 14.351563-32 32-32v-16c-17.648437 0-32-14.351563-32-32h-16c0 17.648437-14.355468 32-32 32v16c17.644532 0 32 14.351562 32 32zm8-53.519532c3.558594 5.359376 8.15625 9.960938 13.519532 13.519532-5.363282 3.558594-9.960938 8.160156-13.519532 13.519531-3.5625-5.359375-8.160156-9.960937-13.523437-13.519531 5.363281-3.558594 9.960937-8.160156 13.523437-13.519532zm0 0"/><path d="m440.003906 309.777344h-16c0 22.054687-17.945312 40-40 40v16c22.054688 0 40 17.945312 40 40h16c0-22.054688 17.941406-40 40-40v-16c-22.058594 0-40-17.945313-40-40zm-8 67.304687c-4.753906-7.921875-11.386718-14.554687-19.304687-19.304687 7.917969-4.753906 14.550781-11.382813 19.304687-19.304688 4.75 7.921875 11.382813 14.550782 19.300782 19.304688-7.917969 4.75-14.550782 11.382812-19.300782 19.304687zm0 0"/><path d="m240.003906 277.777344c17.644532 0 32-14.351563 32-32 0-17.648438-14.355468-32-32-32-17.648437 0-32 14.351562-32 32 0 17.648437 14.351563 32 32 32zm0-48c8.820313 0 16 7.175781 16 16 0 8.824218-7.179687 16-16 16-8.824218 0-16-7.175782-16-16 0-8.824219 7.175782-16 16-16zm0 0"/><path d="m464.003906 93.777344h16v16h-16zm0 0"/></g></svg>